<mxfile host="app.diagrams.net" agent="Mozilla/5.0 (Macintosh; Intel Mac OS X 10_15_7) AppleWebKit/605.1.15 (KHTML, like Gecko) Version/18.6 Safari/605.1.15" version="28.2.4">
  <diagram name="Page-1" id="yf4egsNU7Wt-wPh4UrxR">
    <mxGraphModel dx="1038" dy="698" grid="1" gridSize="10" guides="1" tooltips="1" connect="1" arrows="1" fold="1" page="1" pageScale="1" pageWidth="850" pageHeight="1100" math="0" shadow="0">
      <root>
        <mxCell id="0" />
        <mxCell id="1" parent="0" />
        <mxCell id="qTwT3GlVkRSXHg1hTeQz-24" style="edgeStyle=orthogonalEdgeStyle;rounded=0;orthogonalLoop=1;jettySize=auto;html=1;exitX=0.5;exitY=1;exitDx=0;exitDy=0;entryX=0.5;entryY=0;entryDx=0;entryDy=0;entryPerimeter=0;" edge="1" parent="1" source="zQyselrina7Qtg77QxJP-13" target="uudMKvlxQ56GgilSsbFp-7">
          <mxGeometry relative="1" as="geometry" />
        </mxCell>
        <mxCell id="qTwT3GlVkRSXHg1hTeQz-23" style="edgeStyle=orthogonalEdgeStyle;rounded=0;orthogonalLoop=1;jettySize=auto;html=1;exitX=0.5;exitY=1;exitDx=0;exitDy=0;" edge="1" parent="1" source="zQyselrina7Qtg77QxJP-8">
          <mxGeometry relative="1" as="geometry">
            <mxPoint x="225.20000000000005" y="440" as="targetPoint" />
          </mxGeometry>
        </mxCell>
        <mxCell id="qTwT3GlVkRSXHg1hTeQz-20" style="edgeStyle=orthogonalEdgeStyle;rounded=0;orthogonalLoop=1;jettySize=auto;html=1;exitX=0.5;exitY=1;exitDx=0;exitDy=0;entryX=0.5;entryY=0;entryDx=0;entryDy=0;entryPerimeter=0;" edge="1" parent="1" source="zQyselrina7Qtg77QxJP-14" target="uudMKvlxQ56GgilSsbFp-10">
          <mxGeometry relative="1" as="geometry">
            <Array as="points">
              <mxPoint x="395" y="410" />
              <mxPoint x="434" y="410" />
            </Array>
          </mxGeometry>
        </mxCell>
        <mxCell id="qTwT3GlVkRSXHg1hTeQz-19" style="edgeStyle=orthogonalEdgeStyle;rounded=0;orthogonalLoop=1;jettySize=auto;html=1;exitX=0.5;exitY=1;exitDx=0;exitDy=0;entryX=0.5;entryY=0;entryDx=0;entryDy=0;entryPerimeter=0;" edge="1" parent="1" source="zQyselrina7Qtg77QxJP-9" target="uudMKvlxQ56GgilSsbFp-10">
          <mxGeometry relative="1" as="geometry">
            <Array as="points">
              <mxPoint x="395" y="410" />
              <mxPoint x="434" y="410" />
            </Array>
          </mxGeometry>
        </mxCell>
        <mxCell id="qTwT3GlVkRSXHg1hTeQz-16" style="edgeStyle=orthogonalEdgeStyle;rounded=0;orthogonalLoop=1;jettySize=auto;html=1;exitX=0.5;exitY=1;exitDx=0;exitDy=0;entryX=0.5;entryY=0;entryDx=0;entryDy=0;entryPerimeter=0;" edge="1" parent="1" source="zQyselrina7Qtg77QxJP-15" target="uudMKvlxQ56GgilSsbFp-15">
          <mxGeometry relative="1" as="geometry">
            <Array as="points">
              <mxPoint x="618" y="410" />
              <mxPoint x="644" y="410" />
            </Array>
          </mxGeometry>
        </mxCell>
        <mxCell id="qTwT3GlVkRSXHg1hTeQz-15" style="edgeStyle=orthogonalEdgeStyle;rounded=0;orthogonalLoop=1;jettySize=auto;html=1;exitX=0.5;exitY=1;exitDx=0;exitDy=0;entryX=0.5;entryY=0;entryDx=0;entryDy=0;entryPerimeter=0;" edge="1" parent="1" source="zQyselrina7Qtg77QxJP-10" target="uudMKvlxQ56GgilSsbFp-15">
          <mxGeometry relative="1" as="geometry">
            <Array as="points">
              <mxPoint x="618" y="410" />
              <mxPoint x="644" y="410" />
            </Array>
          </mxGeometry>
        </mxCell>
        <mxCell id="zQyselrina7Qtg77QxJP-3" value="" style="rounded=1;whiteSpace=wrap;html=1;strokeWidth=2;fillColor=#FDFFCC;strokeColor=#d6b656;opacity=50;" parent="1" vertex="1">
          <mxGeometry x="130" y="305" width="628" height="90" as="geometry" />
        </mxCell>
        <mxCell id="uudMKvlxQ56GgilSsbFp-6" value="&lt;span style=&quot;font-size: 18px;&quot;&gt;Node Exporter&lt;/span&gt;" style="rounded=1;whiteSpace=wrap;html=1;fillColor=#d5e8d4;strokeColor=#82b366;" parent="1" vertex="1">
          <mxGeometry x="150" y="320" width="150" height="60" as="geometry" />
        </mxCell>
        <mxCell id="qTwT3GlVkRSXHg1hTeQz-22" style="edgeStyle=orthogonalEdgeStyle;rounded=0;orthogonalLoop=1;jettySize=auto;html=1;exitX=0.5;exitY=1;exitDx=0;exitDy=0;exitPerimeter=0;entryX=0;entryY=0.5;entryDx=0;entryDy=0;" edge="1" parent="1" source="uudMKvlxQ56GgilSsbFp-7" target="uudMKvlxQ56GgilSsbFp-12">
          <mxGeometry relative="1" as="geometry" />
        </mxCell>
        <mxCell id="uudMKvlxQ56GgilSsbFp-7" value="&lt;span style=&quot;font-size: 18px;&quot;&gt;Prometheus&lt;/span&gt;" style="strokeWidth=2;html=1;shape=mxgraph.flowchart.database;whiteSpace=wrap;fillColor=#d5e8d4;strokeColor=#82b366;" parent="1" vertex="1">
          <mxGeometry x="150" y="440" width="150" height="60" as="geometry" />
        </mxCell>
        <mxCell id="uudMKvlxQ56GgilSsbFp-8" value="&lt;span style=&quot;font-size: 18px;&quot;&gt;Promtail&lt;/span&gt;" style="rounded=1;whiteSpace=wrap;html=1;fillColor=#e1d5e7;strokeColor=#9673a6;" parent="1" vertex="1">
          <mxGeometry x="346" y="320" width="98" height="60" as="geometry" />
        </mxCell>
        <mxCell id="uudMKvlxQ56GgilSsbFp-13" value="" style="edgeStyle=orthogonalEdgeStyle;rounded=0;orthogonalLoop=1;jettySize=auto;html=1;" parent="1" source="uudMKvlxQ56GgilSsbFp-10" target="uudMKvlxQ56GgilSsbFp-12" edge="1">
          <mxGeometry relative="1" as="geometry" />
        </mxCell>
        <mxCell id="uudMKvlxQ56GgilSsbFp-10" value="&lt;font size=&quot;4&quot;&gt;Loki&lt;/font&gt;" style="strokeWidth=2;html=1;shape=mxgraph.flowchart.database;whiteSpace=wrap;fillColor=#e1d5e7;strokeColor=#9673a6;" parent="1" vertex="1">
          <mxGeometry x="359" y="440" width="150" height="60" as="geometry" />
        </mxCell>
        <mxCell id="uudMKvlxQ56GgilSsbFp-12" value="&lt;font style=&quot;font-size: 18px;&quot;&gt;Grafana&lt;/font&gt;" style="ellipse;whiteSpace=wrap;html=1;fillColor=#ffe6cc;strokeColor=#d79b00;" parent="1" vertex="1">
          <mxGeometry x="374" y="550" width="120" height="80" as="geometry" />
        </mxCell>
        <mxCell id="uudMKvlxQ56GgilSsbFp-15" value="&lt;font style=&quot;font-size: 18px;&quot;&gt;InfluxDB&lt;/font&gt;" style="strokeWidth=2;html=1;shape=mxgraph.flowchart.database;whiteSpace=wrap;fillColor=#dae8fc;strokeColor=#6c8ebf;" parent="1" vertex="1">
          <mxGeometry x="569" y="440" width="150" height="60" as="geometry" />
        </mxCell>
        <mxCell id="qTwT3GlVkRSXHg1hTeQz-14" style="edgeStyle=orthogonalEdgeStyle;rounded=0;orthogonalLoop=1;jettySize=auto;html=1;exitX=0;exitY=0.5;exitDx=0;exitDy=0;entryX=1;entryY=0.5;entryDx=0;entryDy=0;" edge="1" parent="1" source="uudMKvlxQ56GgilSsbFp-17" target="uudMKvlxQ56GgilSsbFp-8">
          <mxGeometry relative="1" as="geometry" />
        </mxCell>
        <mxCell id="uudMKvlxQ56GgilSsbFp-17" value="&lt;font style=&quot;font-size: 18px;&quot;&gt;SandstoneDashboard&lt;/font&gt;" style="rounded=1;whiteSpace=wrap;html=1;fillColor=#dae8fc;strokeColor=#6c8ebf;" parent="1" vertex="1">
          <mxGeometry x="493" y="320" width="250" height="60" as="geometry" />
        </mxCell>
        <mxCell id="uudMKvlxQ56GgilSsbFp-22" value="&lt;font style=&quot;font-size: 12px;&quot;&gt;Logging&lt;/font&gt;" style="text;html=1;align=center;verticalAlign=middle;whiteSpace=wrap;rounded=0;" parent="1" vertex="1">
          <mxGeometry x="365.5" y="60" width="59" height="30" as="geometry" />
        </mxCell>
        <mxCell id="uudMKvlxQ56GgilSsbFp-23" value="&lt;font style=&quot;font-size: 12px;&quot;&gt;Metrics&lt;/font&gt;" style="text;html=1;align=center;verticalAlign=middle;whiteSpace=wrap;rounded=0;" parent="1" vertex="1">
          <mxGeometry x="195" y="60" width="60" height="30" as="geometry" />
        </mxCell>
        <mxCell id="uudMKvlxQ56GgilSsbFp-26" value="&lt;font style=&quot;font-size: 12px;&quot;&gt;Sensor readings&lt;/font&gt;" style="text;html=1;align=center;verticalAlign=middle;whiteSpace=wrap;rounded=0;" parent="1" vertex="1">
          <mxGeometry x="557.5" y="60" width="121" height="30" as="geometry" />
        </mxCell>
        <mxCell id="zQyselrina7Qtg77QxJP-7" value="" style="rounded=1;whiteSpace=wrap;html=1;strokeWidth=2;fillColor=#FDFFCC;strokeColor=#d6b656;opacity=50;" parent="1" vertex="1">
          <mxGeometry x="130" y="200" width="630" height="90" as="geometry" />
        </mxCell>
        <mxCell id="zQyselrina7Qtg77QxJP-8" value="&lt;span style=&quot;font-size: 18px;&quot;&gt;Node Exporter&lt;/span&gt;" style="rounded=1;whiteSpace=wrap;html=1;fillColor=#d5e8d4;strokeColor=#82b366;" parent="1" vertex="1">
          <mxGeometry x="150" y="215" width="150" height="60" as="geometry" />
        </mxCell>
        <mxCell id="zQyselrina7Qtg77QxJP-9" value="&lt;span style=&quot;font-size: 18px;&quot;&gt;Promtail&lt;/span&gt;" style="rounded=1;whiteSpace=wrap;html=1;fillColor=#e1d5e7;strokeColor=#9673a6;" parent="1" vertex="1">
          <mxGeometry x="346" y="215" width="98" height="60" as="geometry" />
        </mxCell>
        <mxCell id="qTwT3GlVkRSXHg1hTeQz-13" style="edgeStyle=orthogonalEdgeStyle;rounded=0;orthogonalLoop=1;jettySize=auto;html=1;exitX=0;exitY=0.5;exitDx=0;exitDy=0;entryX=1;entryY=0.5;entryDx=0;entryDy=0;" edge="1" parent="1" source="zQyselrina7Qtg77QxJP-10" target="zQyselrina7Qtg77QxJP-9">
          <mxGeometry relative="1" as="geometry" />
        </mxCell>
        <mxCell id="zQyselrina7Qtg77QxJP-10" value="&lt;font style=&quot;font-size: 18px;&quot;&gt;SandstoneDashboard&lt;/font&gt;" style="rounded=1;whiteSpace=wrap;html=1;fillColor=#dae8fc;strokeColor=#6c8ebf;" parent="1" vertex="1">
          <mxGeometry x="493" y="215" width="250" height="60" as="geometry" />
        </mxCell>
        <mxCell id="zQyselrina7Qtg77QxJP-11" value="&lt;font style=&quot;font-size: 12px;&quot;&gt;Raspberry Pis&lt;/font&gt;" style="text;html=1;align=center;verticalAlign=middle;whiteSpace=wrap;rounded=0;rotation=270;" parent="1" vertex="1">
          <mxGeometry x="30" y="230" width="100" height="30" as="geometry" />
        </mxCell>
        <mxCell id="zQyselrina7Qtg77QxJP-12" value="" style="rounded=1;whiteSpace=wrap;html=1;strokeWidth=2;fillColor=#FDFFCC;strokeColor=#d6b656;opacity=50;" parent="1" vertex="1">
          <mxGeometry x="130" y="100" width="630" height="90" as="geometry" />
        </mxCell>
        <mxCell id="zQyselrina7Qtg77QxJP-13" value="&lt;span style=&quot;font-size: 18px;&quot;&gt;Node Exporter&lt;/span&gt;" style="rounded=1;whiteSpace=wrap;html=1;fillColor=#d5e8d4;strokeColor=#82b366;" parent="1" vertex="1">
          <mxGeometry x="150" y="115" width="150" height="60" as="geometry" />
        </mxCell>
        <mxCell id="zQyselrina7Qtg77QxJP-14" value="&lt;span style=&quot;font-size: 18px;&quot;&gt;Promtail&lt;/span&gt;" style="rounded=1;whiteSpace=wrap;html=1;fillColor=#e1d5e7;strokeColor=#9673a6;" parent="1" vertex="1">
          <mxGeometry x="346" y="115" width="98" height="60" as="geometry" />
        </mxCell>
        <mxCell id="qTwT3GlVkRSXHg1hTeQz-1" style="edgeStyle=orthogonalEdgeStyle;rounded=0;orthogonalLoop=1;jettySize=auto;html=1;exitX=0;exitY=0.5;exitDx=0;exitDy=0;" edge="1" parent="1" source="zQyselrina7Qtg77QxJP-15" target="zQyselrina7Qtg77QxJP-14">
          <mxGeometry relative="1" as="geometry" />
        </mxCell>
        <mxCell id="zQyselrina7Qtg77QxJP-15" value="&lt;font style=&quot;font-size: 18px;&quot;&gt;SandstoneDashboard&lt;/font&gt;" style="rounded=1;whiteSpace=wrap;html=1;fillColor=#dae8fc;strokeColor=#6c8ebf;" parent="1" vertex="1">
          <mxGeometry x="493" y="115" width="250" height="60" as="geometry" />
        </mxCell>
        <mxCell id="zQyselrina7Qtg77QxJP-22" value="" style="shape=curlyBracket;whiteSpace=wrap;html=1;rounded=1;labelPosition=left;verticalLabelPosition=middle;align=right;verticalAlign=middle;" parent="1" vertex="1">
          <mxGeometry x="100" y="140" width="20" height="210" as="geometry" />
        </mxCell>
        <mxCell id="zQyselrina7Qtg77QxJP-56" style="edgeStyle=orthogonalEdgeStyle;rounded=0;orthogonalLoop=1;jettySize=auto;html=1;exitX=0;exitY=0.5;exitDx=0;exitDy=0;entryX=1;entryY=0.25;entryDx=0;entryDy=0;" parent="1" source="zQyselrina7Qtg77QxJP-42" target="zQyselrina7Qtg77QxJP-15" edge="1">
          <mxGeometry relative="1" as="geometry" />
        </mxCell>
        <mxCell id="zQyselrina7Qtg77QxJP-42" value="" style="ellipse;whiteSpace=wrap;html=1;aspect=fixed;fillColor=#a20025;fontColor=#ffffff;strokeColor=#6F0000;" parent="1" vertex="1">
          <mxGeometry x="801.25" y="110" width="17.5" height="17.5" as="geometry" />
        </mxCell>
        <mxCell id="zQyselrina7Qtg77QxJP-57" style="edgeStyle=orthogonalEdgeStyle;rounded=0;orthogonalLoop=1;jettySize=auto;html=1;exitX=0;exitY=0.5;exitDx=0;exitDy=0;entryX=1;entryY=0.5;entryDx=0;entryDy=0;" parent="1" source="zQyselrina7Qtg77QxJP-48" target="zQyselrina7Qtg77QxJP-15" edge="1">
          <mxGeometry relative="1" as="geometry" />
        </mxCell>
        <mxCell id="zQyselrina7Qtg77QxJP-48" value="" style="whiteSpace=wrap;html=1;aspect=fixed;fillColor=#b0e3e6;strokeColor=#0e8088;" parent="1" vertex="1">
          <mxGeometry x="800" y="140" width="20" height="20" as="geometry" />
        </mxCell>
        <mxCell id="zQyselrina7Qtg77QxJP-58" style="edgeStyle=orthogonalEdgeStyle;rounded=0;orthogonalLoop=1;jettySize=auto;html=1;exitX=0;exitY=0.5;exitDx=0;exitDy=0;entryX=1;entryY=0.75;entryDx=0;entryDy=0;" parent="1" source="zQyselrina7Qtg77QxJP-53" target="zQyselrina7Qtg77QxJP-15" edge="1">
          <mxGeometry relative="1" as="geometry" />
        </mxCell>
        <mxCell id="zQyselrina7Qtg77QxJP-53" value="" style="rhombus;whiteSpace=wrap;html=1;fillColor=#008a00;fontColor=#ffffff;strokeColor=#005700;" parent="1" vertex="1">
          <mxGeometry x="791.5" y="170" width="23" height="20" as="geometry" />
        </mxCell>
        <mxCell id="zQyselrina7Qtg77QxJP-54" value="" style="ellipse;whiteSpace=wrap;html=1;aspect=fixed;fillColor=#a20025;fontColor=#ffffff;strokeColor=#6F0000;" parent="1" vertex="1">
          <mxGeometry x="794.25" y="220" width="17.5" height="17.5" as="geometry" />
        </mxCell>
        <mxCell id="zQyselrina7Qtg77QxJP-72" style="edgeStyle=orthogonalEdgeStyle;rounded=0;orthogonalLoop=1;jettySize=auto;html=1;exitX=0;exitY=0.5;exitDx=0;exitDy=0;entryX=1;entryY=0.5;entryDx=0;entryDy=0;" parent="1" source="zQyselrina7Qtg77QxJP-55" target="uudMKvlxQ56GgilSsbFp-17" edge="1">
          <mxGeometry relative="1" as="geometry" />
        </mxCell>
        <mxCell id="zQyselrina7Qtg77QxJP-55" value="" style="ellipse;whiteSpace=wrap;html=1;aspect=fixed;fillColor=#a20025;fontColor=#ffffff;strokeColor=#6F0000;" parent="1" vertex="1">
          <mxGeometry x="794.25" y="341.25" width="17.5" height="17.5" as="geometry" />
        </mxCell>
        <mxCell id="zQyselrina7Qtg77QxJP-62" style="edgeStyle=orthogonalEdgeStyle;rounded=0;orthogonalLoop=1;jettySize=auto;html=1;exitX=0;exitY=0.5;exitDx=0;exitDy=0;entryX=1;entryY=0.75;entryDx=0;entryDy=0;" parent="1" source="zQyselrina7Qtg77QxJP-61" target="zQyselrina7Qtg77QxJP-10" edge="1">
          <mxGeometry relative="1" as="geometry" />
        </mxCell>
        <mxCell id="zQyselrina7Qtg77QxJP-61" value="" style="rhombus;whiteSpace=wrap;html=1;fillColor=#008a00;fontColor=#ffffff;strokeColor=#005700;" parent="1" vertex="1">
          <mxGeometry x="791.5" y="250" width="23" height="20" as="geometry" />
        </mxCell>
        <mxCell id="zQyselrina7Qtg77QxJP-70" style="edgeStyle=orthogonalEdgeStyle;rounded=0;orthogonalLoop=1;jettySize=auto;html=1;exitX=0;exitY=0.5;exitDx=0;exitDy=0;entryX=0.992;entryY=0.383;entryDx=0;entryDy=0;entryPerimeter=0;" parent="1" source="zQyselrina7Qtg77QxJP-54" target="zQyselrina7Qtg77QxJP-10" edge="1">
          <mxGeometry relative="1" as="geometry" />
        </mxCell>
        <mxCell id="qTwT3GlVkRSXHg1hTeQz-4" style="edgeStyle=orthogonalEdgeStyle;rounded=0;orthogonalLoop=1;jettySize=auto;html=1;exitX=0.5;exitY=1;exitDx=0;exitDy=0;entryX=0.5;entryY=0;entryDx=0;entryDy=0;entryPerimeter=0;" edge="1" parent="1" source="uudMKvlxQ56GgilSsbFp-17" target="uudMKvlxQ56GgilSsbFp-15">
          <mxGeometry relative="1" as="geometry" />
        </mxCell>
        <mxCell id="qTwT3GlVkRSXHg1hTeQz-8" style="edgeStyle=orthogonalEdgeStyle;rounded=0;orthogonalLoop=1;jettySize=auto;html=1;exitX=0.5;exitY=1;exitDx=0;exitDy=0;exitPerimeter=0;entryX=0.992;entryY=0.558;entryDx=0;entryDy=0;entryPerimeter=0;" edge="1" parent="1" source="uudMKvlxQ56GgilSsbFp-15" target="uudMKvlxQ56GgilSsbFp-12">
          <mxGeometry relative="1" as="geometry" />
        </mxCell>
        <mxCell id="qTwT3GlVkRSXHg1hTeQz-18" style="edgeStyle=orthogonalEdgeStyle;rounded=0;orthogonalLoop=1;jettySize=auto;html=1;exitX=0.5;exitY=1;exitDx=0;exitDy=0;entryX=0.5;entryY=0;entryDx=0;entryDy=0;entryPerimeter=0;" edge="1" parent="1" source="uudMKvlxQ56GgilSsbFp-8" target="uudMKvlxQ56GgilSsbFp-10">
          <mxGeometry relative="1" as="geometry" />
        </mxCell>
        <mxCell id="qTwT3GlVkRSXHg1hTeQz-21" style="edgeStyle=orthogonalEdgeStyle;rounded=0;orthogonalLoop=1;jettySize=auto;html=1;exitX=0.5;exitY=1;exitDx=0;exitDy=0;entryX=0.5;entryY=0;entryDx=0;entryDy=0;entryPerimeter=0;" edge="1" parent="1" source="uudMKvlxQ56GgilSsbFp-6" target="uudMKvlxQ56GgilSsbFp-7">
          <mxGeometry relative="1" as="geometry" />
        </mxCell>
        <mxCell id="qTwT3GlVkRSXHg1hTeQz-25" value="&lt;font style=&quot;font-size: 12px;&quot;&gt;Sensors&lt;/font&gt;" style="text;html=1;align=center;verticalAlign=middle;whiteSpace=wrap;rounded=0;" vertex="1" parent="1">
          <mxGeometry x="742.5" y="60" width="121" height="30" as="geometry" />
        </mxCell>
      </root>
    </mxGraphModel>
  </diagram>
</mxfile>
